<?xml version="1.0" encoding="utf-8"?>
<!-- Generator: Adobe Illustrator 16.0.4, SVG Export Plug-In . SVG Version: 6.00 Build 0)  -->
<!DOCTYPE svg PUBLIC "-//W3C//DTD SVG 1.1//EN" "http://www.w3.org/Graphics/SVG/1.1/DTD/svg11.dtd">
<svg version="1.1" id="圖層_1" xmlns="http://www.w3.org/2000/svg" xmlns:xlink="http://www.w3.org/1999/xlink" x="0px" y="0px"
	 width="30px" height="30px" viewBox="0 0 30 30" enable-background="new 0 0 30 30" xml:space="preserve">
<g>
	<path fill="#F5B533" d="M15,0C6.716,0,0,6.716,0,15s6.716,15,15,15c8.285,0,15-6.716,15-15S23.285,0,15,0z M17.229,5.283
		L17.08,9.219l-0.646,8.422h-2.866L12.92,9.219l-0.15-3.937H17.229z M14.988,24.717c-1.52,0-2.616-1.221-2.616-2.767
		c0-1.52,1.097-2.738,2.616-2.738c1.543,0,2.641,1.219,2.641,2.738C17.629,23.496,16.531,24.717,14.988,24.717z"/>
</g>
</svg>
