<?xml version="1.0" encoding="utf-8"?>
<!-- Generator: Adobe Illustrator 16.0.4, SVG Export Plug-In . SVG Version: 6.00 Build 0)  -->
<!DOCTYPE svg PUBLIC "-//W3C//DTD SVG 1.1//EN" "http://www.w3.org/Graphics/SVG/1.1/DTD/svg11.dtd">
<svg version="1.1" id="分離模式" xmlns="http://www.w3.org/2000/svg" xmlns:xlink="http://www.w3.org/1999/xlink" x="0px"
	 y="0px" width="40px" height="38.112px" viewBox="0 0 40 38.112" enable-background="new 0 0 40 38.112" xml:space="preserve">
<g id="JU0cPQ_2_">
	<g>
		<path fill-rule="evenodd" clip-rule="evenodd" fill="#FFFFFF" d="M20.014,5.251c0.737-1.271,1.602-2.341,2.706-3.205
			c4.634-3.622,12.943-2.708,16.2,4.125c1.437,3.015,1.334,6.037-0.138,9.038c-0.961,1.961-2.355,3.602-3.718,5.272
			c-4.569,5.601-9.136,11.205-13.702,16.809c-0.884,1.085-1.921,1.096-2.798,0.018C13.647,31.271,8.741,25.222,3.81,19.194
			c-1.376-1.683-2.588-3.455-3.29-5.524C-1.086,8.936,1.134,3.626,5.694,1.23C10.65-1.375,16.683,0.19,19.75,4.875
			C19.821,4.983,19.899,5.087,20.014,5.251z"/>
	</g>
</g>
</svg>
