<?xml version="1.0" encoding="utf-8"?>
<!-- Generator: Adobe Illustrator 16.0.4, SVG Export Plug-In . SVG Version: 6.00 Build 0)  -->
<!DOCTYPE svg PUBLIC "-//W3C//DTD SVG 1.1//EN" "http://www.w3.org/Graphics/SVG/1.1/DTD/svg11.dtd">
<svg version="1.1" id="圖層_1" xmlns="http://www.w3.org/2000/svg" xmlns:xlink="http://www.w3.org/1999/xlink" x="0px" y="0px"
	 width="30px" height="30px" viewBox="0 0 30 30" enable-background="new 0 0 30 30" xml:space="preserve">
<path fill-rule="evenodd" clip-rule="evenodd" fill="#FFFFFF" d="M11.684,27.696c5.421-5.419,10.851-10.828,16.251-16.269
	c1.74-1.753,2.309-3.924,1.691-6.316c-0.631-2.446-2.223-4.076-4.657-4.75c-2.402-0.666-4.562-0.09-6.396,1.615
	c-0.551,0.511-0.546,1.124-0.017,1.658c0.955,0.962,1.91,1.922,2.871,2.875c0.083,0.082,0.156,0.173,0.218,0.203
	c-5.378,5.38-10.588,10.59-15.842,15.842c-0.78-0.774-1.583-1.569-2.402-2.383c0.421-0.42,0.854-0.848,1.286-1.278
	c4.019-4.019,8.039-8.038,12.056-12.06c0.517-0.515,0.549-1.172,0.091-1.621c-0.446-0.439-1.1-0.404-1.596,0.093
	c-4.946,4.945-9.892,9.892-14.84,14.835C0.131,20.407-0.001,20.702,0,21.087c0.008,2.575,0.003,5.151,0.004,7.727
	c0,0.717,0.424,1.144,1.131,1.145c2.586,0.001,5.172-0.003,7.759,0.004c0.039,0,0.069-0.017,0.106-0.02v0.02H30v-2.266H11.684z
	 M20.949,2.871c1.52-0.993,3.896-0.833,5.432,0.698c1.562,1.557,1.661,3.953,0.698,5.424C25.044,6.96,23.001,4.92,20.949,2.871z
	 M2.153,27.799c0-1.919,0-3.819,0-5.69c1.896,1.896,3.797,3.798,5.69,5.69C5.986,27.799,4.081,27.799,2.153,27.799z M7.4,24.129
	c5.25-5.247,10.521-10.519,15.797-15.792c0.788,0.793,1.579,1.585,2.338,2.347c-5.262,5.262-10.539,10.539-15.79,15.791
	C8.99,25.721,8.187,24.917,7.4,24.129z"/>
</svg>
